/* XPM */
static char * stick_active_xpm[] = {
"18 16 5 1",
" 	c None",
".	c #D8D8D8 s active_color_2",
"+	c #B2B2B2 s active_shadow_2",
"@	c #A36AC7",
"#	c #FFFFFF s active_hilight_2",
"..................",
"..++++++++++++++..",
"..+@@@@@@@@@@@@#..",
"..+@##########@#..",
"..+@#........+@#..",
"..+@#+++++++++@#..",
"..+@@@@@@@@@@@@#..",
"..+@##########@#..",
"..+@#+++++++++@#..",
"..+@@@@@@@@@@@@#..",
"..+@##########@#..",
"..+@#........+@#..",
"..+@#+++++++++@#..",
"..+@@@@@@@@@@@@#..",
"..+#############..",
".................."};
